<svg width="82" height="74" viewBox="0 0 82 74" fill="none" xmlns="http://www.w3.org/2000/svg">
<path fill-rule="evenodd" clip-rule="evenodd" d="M41 39.05C37.6093 39.05 34.85 41.8093 34.85 45.2C34.85 48.5907 37.6093 51.35 41 51.35C44.3907 51.35 47.15 48.5907 47.15 45.2C47.15 41.8093 44.3907 39.05 41 39.05ZM41 59.55C33.087 59.55 26.65 53.113 26.65 45.2C26.65 37.287 33.087 30.85 41 30.85C48.913 30.85 55.35 37.287 55.35 45.2C55.35 53.113 48.913 59.55 41 59.55ZM32.8 10.35C32.8 9.21838 33.7225 8.29998 34.85 8.29998H47.15C48.2775 8.29998 49.2 9.21838 49.2 10.35V16.5H32.8V10.35ZM69.7 16.5H57.4V10.35C57.4 4.70018 52.8039 0.0999756 47.15 0.0999756H34.85C29.1961 0.0999756 24.6 4.70018 24.6 10.35V16.5H12.3C5.5186 16.5 0 22.0186 0 28.8V61.6C0 68.3814 5.5186 73.9 12.3 73.9H69.7C76.4814 73.9 82 68.3814 82 61.6V28.8C82 22.0186 76.4814 16.5 69.7 16.5Z" fill="#00D68F"/>
</svg>
