<svg width="19" height="29" viewBox="0 0 19 29" fill="none" xmlns="http://www.w3.org/2000/svg">
<rect width="19" height="29" fill="#E5E5E5"/>
<rect width="1308" height="933" transform="translate(-105 -406)" fill="white"/>
<g clip-path="url(#clip0_21_24690)">
<circle cx="9.5" cy="14.5" r="24.5" fill="#00D68F" stroke="#004A45" stroke-width="4"/>
<path fill-rule="evenodd" clip-rule="evenodd" d="M9.60722 0.516846C14.3892 0.516846 18.2796 4.40728 18.2796 9.18925C18.2796 13.3763 15.2946 16.8817 11.3417 17.6847V19.5961C11.3417 20.5553 10.5664 21.3306 9.60722 21.3306C8.64805 21.3306 7.87274 20.5553 7.87274 19.5961V16.1272C7.87274 15.168 8.64805 14.3927 9.60722 14.3927C12.476 14.3927 14.8107 12.0581 14.8107 9.18925C14.8107 6.32042 12.476 3.98581 9.60722 3.98581C6.73839 3.98581 4.40377 6.32042 4.40377 9.18925C4.40377 10.1484 3.62846 10.9237 2.66929 10.9237C1.71013 10.9237 0.934814 10.1484 0.934814 9.18925C0.934814 4.40728 4.82525 0.516846 9.60722 0.516846ZM7.87271 26.5341C7.87271 25.5749 8.64802 24.7996 9.60719 24.7996C10.5664 24.7996 11.3417 25.5749 11.3417 26.5341C11.3417 27.4932 10.5664 28.2686 9.60719 28.2686C8.64802 28.2686 7.87271 27.4932 7.87271 26.5341Z" fill="#004A45"/>
</g>
<defs>
<clipPath id="clip0_21_24690">
<rect width="247" height="628" fill="white" transform="translate(-41 -165)"/>
</clipPath>
</defs>
</svg>
