<svg width="28" height="28" viewBox="0 0 28 28" fill="none" xmlns="http://www.w3.org/2000/svg">
<path fill-rule="evenodd" clip-rule="evenodd" d="M12.6667 2.00002C12.6667 1.26269 13.2641 0.666687 14.0001 0.666687C14.7361 0.666687 15.3334 1.26269 15.3334 2.00002V4.66669C15.3334 5.40402 14.7361 6.00002 14.0001 6.00002C13.2641 6.00002 12.6667 5.40402 12.6667 4.66669V2.00002ZM23.3334 12.6667H26.0001C26.7361 12.6667 27.3334 13.2627 27.3334 14C27.3334 14.7374 26.7361 15.3334 26.0001 15.3334H23.3334C22.5974 15.3334 22.0001 14.7374 22.0001 14C22.0001 13.2627 22.5974 12.6667 23.3334 12.6667ZM6.00008 14C6.00008 13.2627 5.40275 12.6667 4.66675 12.6667H2.00008C1.26408 12.6667 0.666748 13.2627 0.666748 14C0.666748 14.7374 1.26408 15.3334 2.00008 15.3334H4.66675C5.40275 15.3334 6.00008 14.7374 6.00008 14ZM4.40901 4.73775C4.92235 4.20975 5.76501 4.19242 6.29435 4.70442L8.21301 6.55775C8.74235 7.06842 8.75701 7.91375 8.24501 8.44309C7.98368 8.71375 7.63568 8.84975 7.28635 8.84975C6.95301 8.84975 6.61968 8.72709 6.35968 8.47642L4.44101 6.62309C3.91168 6.11242 3.89701 5.26709 4.40901 4.73775ZM20.7137 8.85029C21.047 8.85029 21.3803 8.72629 21.6403 8.47695L23.559 6.62362C24.0883 6.11162 24.103 5.26629 23.591 4.73829C23.0803 4.21029 22.2377 4.19295 21.7057 4.70495L19.787 6.55695C19.2577 7.06895 19.243 7.91429 19.755 8.44229C20.0163 8.71295 20.3643 8.85029 20.7137 8.85029ZM12.6667 23.3334C12.6667 22.596 13.2641 22 14.0001 22C14.7361 22 15.3334 22.596 15.3334 23.3334V26C15.3334 26.7374 14.7361 27.3334 14.0001 27.3334C13.2641 27.3334 12.6667 26.7374 12.6667 26V23.3334ZM21.6401 19.5235C21.1107 19.0128 20.2667 19.0288 19.7547 19.5568C19.2427 20.0862 19.2574 20.9315 19.7867 21.4422L21.7054 23.2955C21.9654 23.5462 22.2987 23.6688 22.6321 23.6688C22.9814 23.6688 23.3294 23.5328 23.5907 23.2622C24.1027 22.7328 24.0881 21.8875 23.5587 21.3768L21.6401 19.5235ZM4.44141 21.3768L6.36008 19.5235C6.89075 19.0128 7.73475 19.0288 8.24541 19.5568C8.75741 20.0862 8.74275 20.9315 8.21341 21.4422L6.29475 23.2955C6.03475 23.5462 5.70142 23.6688 5.36808 23.6688C5.01875 23.6688 4.67075 23.5328 4.40941 23.2622C3.89741 22.7328 3.91208 21.8875 4.44141 21.3768Z" fill="#DB2C66"/>
</svg>
