<svg width="145" height="132" viewBox="0 0 145 132" fill="none" xmlns="http://www.w3.org/2000/svg">
<g filter="url(#filter0_dd_6314_4302)">
<path d="M72.5079 65.1248C78.8266 65.1248 84.0974 60.6508 85.3486 54.7063H106.369C104.883 71.9922 90.3848 85.555 72.7269 85.555C55.069 85.555 40.5549 71.9922 39.0847 54.7063H59.6673C60.9185 60.6664 66.1893 65.1248 72.5079 65.1248Z" fill="white"/>
<path d="M65.0005 84.6789C50.9868 81.3938 40.3358 69.3954 39.0846 54.7063H47.3739C48.2028 68.0344 55.194 79.3289 65.0005 84.6789Z" fill="#C5CEE0"/>
<path d="M64.7661 52.0003C64.7818 52.0003 64.7818 52.0003 64.7661 52.0003C64.7818 51.046 64.9538 50.1387 65.2666 49.294C66.3615 46.353 69.1923 44.2725 72.5081 44.2725C75.8238 44.2725 78.6547 46.3687 79.7495 49.294C80.0623 50.1387 80.2344 51.046 80.2344 52.0003H80.2187C80.2187 52.9545 80.0467 53.8618 79.7339 54.7066C78.6391 57.6475 75.8082 59.7281 72.4924 59.7281C69.1767 59.7281 66.3458 57.6319 65.251 54.7066C64.9382 53.8775 64.7661 52.9545 64.7661 52.0003Z" fill="white"/>
<path d="M72.4922 38.8907C66.1736 38.8907 60.9028 43.3646 59.6516 49.3091H38.6311C40.1169 32.0076 54.6154 18.4448 72.2889 18.4448C89.9624 18.4448 104.445 32.0076 105.931 49.2935H85.3329C84.0817 43.349 78.8109 38.8907 72.4922 38.8907Z" fill="#DB2C66"/>
<path d="M47.3741 49.2938H38.6468C39.9293 34.3545 50.9401 22.184 65.3135 19.1648C55.335 24.4366 48.2187 35.8406 47.3741 49.2938Z" fill="#DB2C66"/>
<path d="M72.2889 18.4451C54.6154 18.4451 40.1168 32.0078 38.6466 49.2937H59.6672C60.9184 43.3492 66.1892 38.8752 72.5078 38.8752C78.8265 38.8752 84.0973 43.3492 85.3485 49.2937H105.931C104.445 32.0078 89.9467 18.4451 72.2889 18.4451ZM65.2664 49.2937C64.9536 50.1384 64.7815 51.0458 64.7815 52H64.7659C64.7659 52.9542 64.9379 53.8616 65.2507 54.7063C66.3456 57.6472 69.1764 59.7278 72.4922 59.7278C75.8079 59.7278 78.6388 57.6316 79.7336 54.7063C80.0464 53.8616 80.2185 52.9542 80.2185 52H80.2341C80.2341 51.0458 80.0621 50.1384 79.7493 49.2937C78.6545 46.3528 75.8236 44.2722 72.5078 44.2722C69.1921 44.2722 66.3612 46.3684 65.2664 49.2937ZM72.7268 85.5706C90.4003 85.5706 104.899 72.0078 106.369 54.7219H85.3485C84.0973 60.6664 78.8265 65.1404 72.5078 65.1404C66.1892 65.1404 60.9184 60.6664 59.6672 54.7219H39.0689C40.5547 71.9922 55.0533 85.5706 72.7268 85.5706ZM72.5078 12C94.5919 12 112.5 29.9116 112.5 52C112.5 74.0884 94.5919 92 72.5078 92C50.4238 92 32.5 74.104 32.5 52C32.5 29.896 50.4081 12 72.5078 12Z" fill="#101426"/>
</g>
<defs>
<filter id="filter0_dd_6314_4302" x="0.5" y="0" width="144" height="144" filterUnits="userSpaceOnUse" color-interpolation-filters="sRGB">
<feFlood flood-opacity="0" result="BackgroundImageFix"/>
<feColorMatrix in="SourceAlpha" type="matrix" values="0 0 0 0 0 0 0 0 0 0 0 0 0 0 0 0 0 0 127 0" result="hardAlpha"/>
<feOffset dy="20"/>
<feGaussianBlur stdDeviation="16"/>
<feColorMatrix type="matrix" values="0 0 0 0 0.0352941 0 0 0 0 0.117647 0 0 0 0 0.258824 0 0 0 0.25 0"/>
<feBlend mode="normal" in2="BackgroundImageFix" result="effect1_dropShadow_6314_4302"/>
<feColorMatrix in="SourceAlpha" type="matrix" values="0 0 0 0 0 0 0 0 0 0 0 0 0 0 0 0 0 0 127 0" result="hardAlpha"/>
<feOffset/>
<feGaussianBlur stdDeviation="0.5"/>
<feColorMatrix type="matrix" values="0 0 0 0 0.0352941 0 0 0 0 0.117647 0 0 0 0 0.258824 0 0 0 0.31 0"/>
<feBlend mode="normal" in2="effect1_dropShadow_6314_4302" result="effect2_dropShadow_6314_4302"/>
<feBlend mode="normal" in="SourceGraphic" in2="effect2_dropShadow_6314_4302" result="shape"/>
</filter>
</defs>
</svg>
